<?xml version="1.0" encoding="UTF-8"?>
<svg version="1.1" xmlns="http://www.w3.org/2000/svg" width="512" height="512">
<path d="M0 0 C0.97727051 0.50942139 1.95454102 1.01884277 2.96142578 1.54370117 C8.16611824 4.24631932 8.16611824 4.24631932 13.86328125 5.109375 C17.86512829 3.65809623 21.77607169 2.05320503 25.6875 0.375 C71.16062478 -18.37206258 124.29974862 -18.21440362 169.8125 0.3125 C171.40895162 0.98104273 173.00410099 1.65270751 174.59765625 2.328125 C175.31928955 2.62468994 176.04092285 2.92125488 176.78442383 3.22680664 C178.47362363 3.94499456 180.1247234 4.75164243 181.765625 5.57421875 C186.49115932 6.34737554 189.45005986 3.99990261 193.4375 1.625 C216.06545469 -10.98443758 241.22318894 -16.55412445 266.75 -19.9375 C267.67167969 -20.06898437 268.59335937 -20.20046875 269.54296875 -20.3359375 C271.95095151 -20.63441443 274.32650115 -20.81239313 276.75 -20.9375 C277.37616211 -20.97536621 278.00232422 -21.01323242 278.64746094 -21.05224609 C287.81144983 -21.5510668 296.20599983 -21.99312876 303.75 -15.9375 C310.91359515 -8.62372465 312.09422449 -1.28156833 312 8.625 C311.99323242 9.67075195 311.98646484 10.71650391 311.97949219 11.79394531 C311.50007135 49.69048973 307.75524917 89.8596763 291.546875 124.64453125 C289.61767391 130.49833258 291.03943244 136.49223528 292.1875 142.375 C293.34943093 148.60016167 294.24843929 154.74283507 294.75 161.0625 C295.41386719 161.28164062 296.07773437 161.50078125 296.76171875 161.7265625 C303.70985273 164.22180478 307.10670343 166.50963331 310.84765625 172.953125 C312.80450706 177.52758145 312.66850342 182.75244419 310.83984375 187.3515625 C308.22956833 191.83351451 305.38633194 194.60797133 300.75 197.0625 C299.77861084 197.27531616 299.77861084 197.27531616 298.78759766 197.49243164 C296.40061823 198.0486018 294.76191942 198.64562164 292.75 200.0625 C291.05866731 203.62879579 290.53179253 207.30640593 289.9375 211.1875 C289.58156882 213.21177771 289.22094715 215.23523671 288.85546875 217.2578125 C288.68450684 218.2365332 288.51354492 219.21525391 288.33740234 220.22363281 C287.62243216 223.67902485 286.56131964 226.91637206 285.3293457 230.21826172 C284.60015074 232.21733448 284.60015074 232.21733448 284.75 235.0625 C286.73600337 236.4165932 288.73817543 237.74707624 290.75 239.0625 C294.46345928 242.98226257 296.69592697 246.72198865 296.78515625 252.234375 C296.42309332 257.49753376 295.26864095 260.97326863 291.75 265.0625 C286.15934519 269.28401485 281.73206767 270.65118414 274.75 270.0625 C273.06301918 269.44905243 271.39034193 268.79154086 269.75 268.0625 C268.43 268.0625 267.11 268.0625 265.75 268.0625 C263.66682898 270.28913491 263.66682898 270.28913491 261.8125 273.1875 C258.95000933 277.33409863 256.04391104 281.25391536 252.75 285.0625 C254.0761007 287.98247173 255.56035562 290.10552874 257.75 292.4375 C261.76536938 297.08119124 262.98413778 300.86330603 262.6875 307 C261.89070749 313.22435562 259.24813703 316.98071914 254.5 320.9375 C248.17862155 323.52351846 242.79526823 323.59515962 236.4765625 321.046875 C234.56096829 319.95472626 233.23386658 318.68291872 231.75 317.0625 C231.59144531 318.22265625 231.43289063 319.3828125 231.26953125 320.578125 C228.50338323 339.6022825 221.58565664 355.23436124 205.94921875 367.20703125 C185.09357035 382.15485251 161.54790512 390.89834934 136.1875 394.5 C129.8346286 395.41610296 125.27284399 396.92240769 119.91796875 400.63671875 C111.18887844 406.37747184 99.59286506 407.11716488 89.53125 405.56640625 C81.14509624 403.83235343 74.80833762 400.76805841 67.75 396.0625 C65.68378125 395.52207186 65.68378125 395.52207186 63.3828125 395.203125 C62.50786133 395.06036133 61.63291016 394.91759766 60.73144531 394.77050781 C59.78881836 394.61936523 58.84619141 394.46822266 57.875 394.3125 C28.42288313 389.22117259 -5.25275515 378.7098654 -23.91796875 353.60546875 C-31.5904706 342.60126554 -34.63105084 331.26971684 -36.25 318.0625 C-37.054375 318.701875 -37.85875 319.34125 -38.6875 320 C-43.24837796 323.00481371 -48.08592983 323.65221917 -53.4296875 322.65625 C-59.54559714 320.71762204 -62.47842469 317.2682077 -65.5625 311.6875 C-67.22431797 305.34237686 -66.65061188 300.6796187 -63.5390625 295.02734375 C-61.40222515 291.77028561 -58.88562849 288.91919752 -56.25 286.0625 C-57.00925781 285.18207031 -57.76851562 284.30164063 -58.55078125 283.39453125 C-59.55487989 282.22151882 -60.55877542 281.04833252 -61.5625 279.875 C-62.06201172 279.29685547 -62.56152344 278.71871094 -63.07617188 278.12304688 C-65.81225197 274.91585365 -68.20313836 271.77200011 -70.25 268.0625 C-73.01276177 268.58518466 -75.5760876 269.17119587 -78.25 270.0625 C-84.61057211 270.60153153 -88.94111791 269.69613485 -94.25 266.0625 C-98.19965256 262.00890922 -100.04148713 258.31443894 -100.5625 252.6875 C-99.97078384 245.82359257 -97.36678589 241.55528761 -92.25 237.0625 C-90.92273933 236.05445392 -89.59047099 235.05291169 -88.25 234.0625 C-88.56453125 233.20011719 -88.8790625 232.33773437 -89.203125 231.44921875 C-89.84507813 229.61810547 -89.84507813 229.61810547 -90.5 227.75 C-90.84985962 226.76012085 -90.84985962 226.76012085 -91.20678711 225.75024414 C-92.51757947 221.86196513 -93.46638058 218.11186277 -94.05078125 214.046875 C-94.998963 204.91283033 -94.998963 204.91283033 -99.9921875 197.734375 C-103.14743911 196.20722093 -103.14743911 196.20722093 -106.390625 195.1171875 C-110.48960871 193.60526728 -111.9212347 191.67610133 -114.25 188.0625 C-116.04973286 182.66330143 -115.95112627 177.12692735 -114.125 171.75 C-111.81198986 168.43468546 -109.60990709 166.32397593 -106.25 164.0625 C-103.92706456 163.66309232 -101.59284242 163.32065681 -99.25 163.0625 C-99.14042969 161.79277344 -99.03085938 160.52304688 -98.91796875 159.21484375 C-98.75873174 157.47647805 -98.59850262 155.73820306 -98.4375 154 C-98.35709473 153.08476562 -98.27668945 152.16953125 -98.19384766 151.2265625 C-97.79552074 147.07641688 -97.37582016 143.09768364 -96.16796875 139.09765625 C-93.45228232 129.8928015 -94.98765281 124.66143352 -98.75048828 116.22729492 C-107.05420768 97.60055045 -110.70105008 77.19180639 -113.25 57.0625 C-113.41773926 55.74330566 -113.41773926 55.74330566 -113.58886719 54.39746094 C-115.00474367 42.68186471 -115.53913649 30.89751444 -115.9737854 19.11077881 C-116.03228743 17.55398481 -116.09563459 15.99736428 -116.16415405 14.440979 C-116.62272942 3.68007295 -116.74712985 -6.28696556 -109.25 -14.9375 C-86.88845778 -36.74752436 -23.52458088 -11.70681666 0 0 Z M-28.35351562 79.95458984 C-52.03692927 106.27830166 -63.15000989 139.16626189 -64.25 174.0625 C-63.44175781 174.36542969 -62.63351563 174.66835937 -61.80078125 174.98046875 C-49.71561557 179.71832019 -49.71561557 179.71832019 -45.9375 186.375 C-44.30362052 192.76198341 -44.82006687 197.59021899 -47.97265625 203.30078125 C-50.62097849 206.95336025 -54.06841508 208.66863836 -58.25 210.0625 C-57.96758359 211.52265291 -57.67373386 212.98059793 -57.375 214.4375 C-57.21257812 215.24960937 -57.05015625 216.06171875 -56.8828125 216.8984375 C-56.38341068 219.24923923 -56.38341068 219.24923923 -54.25 221.0625 C-51.32241071 221.19144497 -51.32241071 221.19144497 -48 221 C-39.22454353 220.90324745 -39.22454353 220.90324745 -35.25 224.0625 C-31.07168649 229.23041408 -30.63819088 233.68041905 -30.8515625 240.25390625 C-31.3829799 243.99987791 -32.82068395 246.20448111 -35.25 249.0625 C-35.94330827 250.38217643 -36.61553454 251.71354641 -37.25 253.0625 C-36.12895467 254.37837941 -35.00303035 255.69010353 -33.875 257 C-32.93527344 258.09634766 -32.93527344 258.09634766 -31.9765625 259.21484375 C-30.37252286 261.14630906 -30.37252286 261.14630906 -28.25 262.0625 C-27.074375 261.85625 -25.89875 261.65 -24.6875 261.4375 C-19.68162777 260.75488106 -15.72259184 261.76645572 -11.25 264.0625 C-7.5139843 267.08310844 -7.5139843 267.08310844 -6.25 270.0625 C-6.07311328 272.18514068 -5.93065104 274.31078124 -5.8125 276.4375 C-5.27684014 280.80213592 -4.8906629 282.49960543 -1.546875 285.4375 C1.43686935 287.28049067 4.57272718 288.7638432 7.77685547 290.18164062 C9.67727851 291.03003537 11.52595364 291.94370615 13.37890625 292.890625 C57.94718437 315.30472717 112.65682587 316.6182768 159.75 302.0625 C181.8413798 294.82361032 181.8413798 294.82361032 200.75 282.0625 C201.10044625 279.79584463 201.10044625 279.79584463 201.1875 277.25 C201.51287038 273.07441344 202.26575308 270.51884354 204.75 267.0625 C204.75 266.4025 204.75 265.7425 204.75 265.0625 C210.13807974 262.04517535 214.63857857 260.75236494 220.6875 262.0625 C223.23204483 262.55730578 223.23204483 262.55730578 225.75 262.0625 C229.04570509 259.12884329 231.4081424 255.78461445 233.75 252.0625 C232.96625 251.19625 232.1825 250.33 231.375 249.4375 C227.62276258 244.85380088 226.52133696 240.96867272 226.875 235.0625 C227.60101931 229.44851346 229.53844229 225.89493353 233.9375 222.25 C239.23023151 220.01529114 245.05117309 219.87866687 250.75 220.0625 C253.04045014 215.25040099 253.04045014 215.25040099 253.75 210.0625 C252.0782287 208.73302879 252.0782287 208.73302879 249.9375 207.625 C245.54874053 205.04292066 243.38284985 202.96104955 241.75 198.0625 C241.01872048 191.20525595 241.54416873 186.59648851 245.75 181.0625 C248.96020233 178.43597082 252.09800296 176.86508328 255.953125 175.453125 C256.66629883 175.19047852 257.37947266 174.92783203 258.11425781 174.65722656 C258.65405273 174.4609668 259.19384766 174.26470703 259.75 174.0625 C258.90631887 136.39213734 245.48625833 102.71252413 219.16650391 75.53027344 C217.74524487 74.05757276 216.34721558 72.56507502 214.94921875 71.0703125 C203.01892708 58.51436323 189.12787053 48.92639308 173.75 41.0625 C173.06824707 40.71203613 172.38649414 40.36157227 171.68408203 40.00048828 C102.15428632 4.70675392 23.84767707 24.24227546 -28.35351562 79.95458984 Z M2.75 327.0625 C6.1114229 336.86665012 14.90411758 342.53383088 23.7734375 347.10546875 C36.77504095 353.56035206 36.77504095 353.56035206 50.75 356.0625 C51.41 351.4425 52.07 346.8225 52.75 342.0625 C50.72875 341.60875 48.7075 341.155 46.625 340.6875 C36.54218516 338.28124685 26.76595836 334.83465202 16.96044922 331.50439453 C16.31774078 331.28632645 15.67503235 331.06825836 15.0128479 330.84358215 C13.24244079 330.24164835 11.47323315 329.63619001 9.70410156 329.03051758 C7.39182777 328.27281794 5.11965323 327.60431058 2.75 327.0625 Z M182.1875 330.25 C169.26660809 335.09487428 156.16359753 338.8364449 142.75 342.0625 C143.41 346.6825 144.07 351.3025 144.75 356.0625 C160.23369061 354.61143748 179.11919211 346.04755643 189.41796875 334.1328125 C191.94297822 330.92654857 191.94297822 330.92654857 192.75 327.0625 C189.06388259 327.0625 185.60493577 328.94550754 182.1875 330.25 Z M86.875 351.8125 C85.17667312 355.20915376 85.12106473 358.39488872 85.75 362.0625 C87.57907489 365.79099882 89.14869136 367.64826516 92.5625 370 C96.50694944 371.31481648 98.74912476 371.15364779 102.75 370.0625 C106.12593285 367.88689883 108.56143182 365.9523595 109.75 362.0625 C110.28213468 357.34930711 110.51096102 354.46741414 107.5 350.6875 C104.12871394 347.46945422 102.45772777 346.2852471 97.875 345.6875 C93.12139923 346.25793209 90.30504451 348.61112513 86.875 351.8125 Z " fill="#213FAE" transform="translate(158.25,63.9375)"/>
<path d="M0 0 C1.84851563 -0.02900391 1.84851563 -0.02900391 3.734375 -0.05859375 C10.93527922 -0.01996229 16.62531797 0.47921373 22 5.625 C25.86013115 10.90197092 26.99505529 16.16313493 26 22.625 C24.72223616 26.01107418 23.79255274 28.01534404 20.91796875 30.2265625 C18.02303878 33.84669896 18.45173286 37.18892503 18.5625 41.6875 C18.55541016 42.50283203 18.54832031 43.31816406 18.54101562 44.15820312 C18.40823737 48.57387074 18.40823737 48.57387074 20.40209961 52.31811523 C23.42729708 54.79235237 26.07274488 55.03473195 29.96484375 54.95703125 C32.28528014 54.72402527 32.28528014 54.72402527 34.875 52.6875 C37.23182868 49.29089397 37.76364825 46.82303411 38.4921875 42.8359375 C39.61388863 37.95222335 42.19580077 35.24866471 46.0625 32.25 C50.85128866 29.81450019 55.77312982 29.77638458 61 30.625 C65.7088704 32.32804146 68.95123191 34.93396762 71.5 39.25 C74.62793898 46.64583795 73.56449589 54.72902602 71.03515625 62.15234375 C66.03528161 74.09544053 58.64406983 81.81617181 47.02734375 87.3984375 C40.49423417 90.04540061 34.72869151 91.01328742 27.75 91 C26.91315674 90.99911377 26.07631348 90.99822754 25.21411133 90.99731445 C17.06492365 90.84194912 10.75787761 88.75210053 3.6875 84.75 C1.03519069 83.34518362 1.03519069 83.34518362 -1.8125 84.1875 C-2.864375 84.661875 -3.91625 85.13625 -5 85.625 C-6.5411931 86.31356096 -8.08288962 87.00099587 -9.625 87.6875 C-10.35976562 88.02910156 -11.09453125 88.37070312 -11.8515625 88.72265625 C-22.00048623 92.98520422 -36.44056318 91.85573849 -46.42578125 87.88671875 C-50.61457812 85.83363622 -54.34830187 83.52799406 -58 80.625 C-58.61488281 80.14675781 -59.22976562 79.66851562 -59.86328125 79.17578125 C-67.38569252 72.5540578 -72.33649917 61.90175501 -73.23828125 52.01171875 C-73.4116183 45.70772383 -73.03498109 40.67729926 -69 35.625 C-64.94755696 31.71558436 -61.03559575 30.30088045 -55.4375 30.0625 C-50.44360865 30.33188003 -46.71582926 31.18082405 -43 34.625 C-39.66405671 38.56586101 -37.89348019 42.37739798 -36.9375 47.4375 C-36.40558737 50.2168633 -36.15495345 51.42832831 -34.375 53.6875 C-30.11243613 55.370091 -25.86116007 55.29310874 -21.5625 53.75 C-19.84106726 52.69425899 -19.84106726 52.69425899 -19 50.625 C-17.88148232 40.04518595 -17.88148232 40.04518595 -20.3046875 29.984375 C-22.07473027 27.95462958 -22.07473027 27.95462958 -25 25.625 C-26.82526221 20.14921337 -26.80127023 14.71759653 -24.5 9.375 C-18.84322246 -0.05965649 -10.14090302 -0.15911459 0 0 Z " fill="#203FAE" transform="translate(256,212.375)"/>
<path d="M0 0 C6.29307757 3.67871201 10.76495676 8.65025562 13.02734375 15.640625 C14.73821359 23.95460404 14.16160863 31.74451339 9.5 38.9375 C4.53723347 45.57207383 -1.83481069 49.0828758 -10.01171875 50.31640625 C-18.07767803 50.70894116 -25.35891303 48.23852301 -31.375 42.8125 C-37.09312415 36.45902873 -39.23313139 29.0666216 -38.88671875 20.609375 C-37.88458688 13.68555484 -34.53179379 7.75052014 -29.5 2.9375 C-20.74381936 -3.36695006 -9.88609562 -4.48149817 0 0 Z " fill="#203FAE" transform="translate(349.5,181.0625)"/>
<path d="M0 0 C6.08944684 3.53127725 9.89205993 8.72161985 13 14.9375 C14.56789499 23.64802771 14.0301012 31.29391156 9.5625 39.0625 C5.2219413 45.07250436 -0.30277834 48.25475193 -7.4375 50.0625 C-14.72405403 51.16171577 -21.05340663 49.68909422 -27.4375 46.0625 C-32.98727999 41.96648647 -36.69703232 36.75501263 -38.4375 30.0625 C-39.48085304 21.07543627 -38.37079614 13.63007366 -32.875 6.375 C-24.29613209 -2.77019904 -11.49629328 -5.02197286 0 0 Z " fill="#203FAE" transform="translate(187.4375,180.9375)"/>
<path d="M0 0 C0.71626196 18.56975441 -1.58361581 37.1292507 -4.5625 55.4375 C-4.67698486 56.14575928 -4.79146973 56.85401855 -4.90942383 57.58374023 C-5.55256904 61.27077188 -6.46639983 64.58395498 -8 68 C-11.34092681 64.88634712 -13.87581689 61.43823626 -16.4375 57.6875 C-27.92015048 41.32537108 -41.81187434 26.77707554 -58 15 C-48.76937259 3.5033702 -19.83019417 2.14519621 -6.03613281 0.21191406 C-4 0 -4 0 0 0 Z " fill="#A5B8FD" transform="translate(435,78)"/>
<path d="M0 0 C19.96501956 0.84240589 39.47806844 5.66840209 58 13 C56.55483833 16.50203199 54.83597699 18.13651285 51.8125 20.375 C37.17317196 31.76821617 25.50729577 44.93273117 14.71582031 59.96264648 C12.63234961 62.85393906 10.56601288 65.52950549 8 68 C1.83824555 46.10610653 -0.36740114 22.69408571 0 0 Z " fill="#A5B8FD" transform="translate(77,78)"/>
</svg>
